<?xml version="1.0" encoding="UTF-8"?>
<svg version="1.1" xmlns="http://www.w3.org/2000/svg" width="1024" height="1024">
<path d="M0 0 C4.85853198 4.39852377 8.43407041 10.34336981 12.0625 15.75 C13.20952326 17.44278433 14.35666193 19.13549048 15.50390625 20.828125 C16.08414551 21.68728516 16.66438477 22.54644531 17.26220703 23.43164062 C19.99170686 27.46568646 22.74645788 31.48234503 25.5 35.5 C26.57567314 37.07151034 27.65119334 38.64312538 28.7265625 40.21484375 C29.2618457 40.99714355 29.79712891 41.77944336 30.34863281 42.58544922 C32.05366518 45.07846668 33.75742362 47.57235098 35.4609375 50.06640625 C40.34488144 57.21477464 45.22882986 64.36092323 50.2109375 71.44140625 C52.57570839 74.82333842 54.91331894 78.22361989 57.25 81.625 C57.72300537 82.31352051 58.19601074 83.00204102 58.68334961 83.71142578 C60.98689487 87.06578607 63.28884126 90.42123885 65.58984375 93.77734375 C66.45559581 95.03915401 67.32148324 96.3008714 68.1875 97.5625 C68.6316626 98.20977051 69.0758252 98.85704102 69.53344727 99.52392578 C72.23476458 103.45354162 74.95400027 107.37003882 77.6875 111.27734375 C85.3996225 122.30692882 92.97480631 133.41064005 100.4074707 144.63061523 C104.71544466 151.11850206 109.14708115 157.48655861 113.71484375 163.79296875 C116.6332723 167.88874626 119.41221924 172.06798301 122.18554688 176.26269531 C125.19849023 180.81491066 128.27055474 185.32226055 131.375 189.8125 C137.35686369 198.4704606 143.18576947 207.22888794 149 216 C146.43717536 221.35489278 143.67288719 226.22100909 140.25 231.0625 C139.78319824 231.73240967 139.31639648 232.40231934 138.83544922 233.0925293 C137.79778385 234.58080829 136.75779096 236.06746641 135.71582031 237.55273438 C132.50625808 242.13051636 129.31782088 246.72303422 126.125 251.3125 C125.44252197 252.29234863 124.76004395 253.27219727 124.05688477 254.28173828 C119.74057162 260.48237959 115.44952771 266.69942957 111.1875 272.9375 C110.66510742 273.70167236 110.14271484 274.46584473 109.60449219 275.25317383 C107.01626942 279.04156086 104.43356477 282.83362133 101.85546875 286.62890625 C100.86204429 288.0859819 99.86855757 289.54301511 98.875 291 C98.42535889 291.66507568 97.97571777 292.33015137 97.51245117 293.01538086 C93.553641 298.81093287 93.553641 298.81093287 91 301 C88.1875 301.1875 88.1875 301.1875 85 300 C83.22284876 298.07580315 81.7618435 296.08004238 80.296875 293.91015625 C79.00730349 291.88208567 79.00730349 291.88208567 77 290 C75.98066967 288.457343 74.99042212 286.89539522 74.015625 285.32421875 C69.42712489 278.03932238 64.59027832 270.9311877 59.75 263.8125 C58.80388978 262.41890826 57.85784533 261.02527187 56.91186523 259.6315918 C48.93717871 247.88789959 40.93201828 236.1693306 32.77368164 224.55224609 C32.1677417 223.68937988 31.56180176 222.82651367 30.9375 221.9375 C30.33607178 221.0810791 29.73464355 220.2246582 29.11499023 219.34228516 C25.32452586 213.9308951 21.61568497 208.47558357 17.98608398 202.95532227 C15.35222999 198.97096675 12.64311972 195.04567947 9.8984375 191.13671875 C9.17382324 190.10393799 8.44920898 189.07115723 7.70263672 188.00708008 C6.2581334 185.95304184 4.80938103 183.90198377 3.35595703 181.85424805 C2.69192871 180.90976807 2.02790039 179.96528809 1.34375 178.9921875 C0.74755859 178.15026855 0.15136719 177.30834961 -0.46289062 176.44091797 C-1.98517804 174.02353716 -3.03067643 171.68119685 -4 169 C-7.62346962 170.20782321 -8.10804134 171.22630731 -10.1875 174.34765625 C-10.79811279 175.25491455 -11.40872559 176.16217285 -12.0378418 177.09692383 C-12.685354 178.07556396 -13.33286621 179.0542041 -14 180.0625 C-15.36043506 182.08870419 -16.72111363 184.11474489 -18.08203125 186.140625 C-18.75057129 187.14158203 -19.41911133 188.14253906 -20.10791016 189.17382812 C-22.60660413 192.9060709 -25.13980006 196.61359959 -27.6875 200.3125 C-28.3357373 201.2554895 -28.3357373 201.2554895 -28.99707031 202.2175293 C-33.30541593 208.47072565 -37.68793431 214.67129828 -42.078125 220.8671875 C-45.4046065 225.56470723 -48.70134819 230.28291873 -52 235 C-53.06101623 236.51445022 -54.12220993 238.02877613 -55.18359375 239.54296875 C-73.15178351 265.16221419 -73.15178351 265.16221419 -90.84008789 290.97485352 C-93.42451642 294.77708003 -96.06007444 298.45808969 -99 302 C-103.9860381 301.08766111 -106.11471793 297.92617497 -109 294 C-111.23662955 290.68996792 -113.43088088 287.35210614 -115.57275391 283.97998047 C-116.6655992 282.28694166 -117.82734166 280.63876895 -119 279 C-119.66 279 -120.32 279 -121 279 C-121.08362793 278.46745605 -121.16725586 277.93491211 -121.25341797 277.38623047 C-122.2632475 274.15860657 -124.06138147 271.59079351 -125.9453125 268.8203125 C-126.34757553 268.21911087 -126.74983856 267.61790924 -127.16429138 266.99848938 C-128.47896926 265.03686132 -129.80185581 263.08092511 -131.125 261.125 C-132.03291403 259.77381666 -132.94038176 258.42233334 -133.84741211 257.07055664 C-139.98951569 247.92856865 -146.17700098 238.81651266 -152.41650391 229.74072266 C-160.08195539 218.5736877 -160.08195539 218.5736877 -159.5 214.5 C-158 211 -158 211 -155.6953125 208.70703125 C-152.78153229 205.78058243 -150.59192253 202.64185928 -148.375 199.1875 C-147.49717063 197.84564906 -146.61822603 196.50452717 -145.73828125 195.1640625 C-145.28791504 194.47602539 -144.83754883 193.78798828 -144.37353516 193.07910156 C-142.14754586 189.70965171 -139.85694503 186.38555987 -137.5625 183.0625 C-137.10536621 182.39951904 -136.64823242 181.73653809 -136.17724609 181.0534668 C-135.24886219 179.70745667 -134.32015097 178.36167224 -133.39111328 177.01611328 C-131.08955822 173.68051452 -128.7950869 170.34005094 -126.5 167 C-123.79833362 163.06930663 -121.09612287 159.13899493 -118.390625 155.2109375 C-113.11570326 147.54983512 -107.86310447 139.87382723 -102.625 132.1875 C-101.98812256 131.25317139 -101.35124512 130.31884277 -100.69506836 129.35620117 C-96.97424142 123.89751709 -96.97424142 123.89751709 -93.25537109 118.4375 C-87.08322907 109.37379101 -80.86034603 100.35295992 -74.51660156 91.40844727 C-69.13634597 83.80817473 -63.8928357 76.11575869 -58.64990234 68.42041016 C-55.89646584 64.3811131 -53.1356858 60.34684444 -50.375 56.3125 C-49.83512451 55.52335205 -49.29524902 54.7342041 -48.73901367 53.92114258 C-44.39912242 47.57903256 -40.04894342 41.24405903 -35.69140625 34.9140625 C-33.84039727 32.22451599 -31.99472504 29.53140096 -30.15234375 26.8359375 C-9.95013617 -2.69834201 -9.95013617 -2.69834201 0 0 Z " fill="#4C3A99" transform="translate(518,256)"/>
<path d="M0 0 C5.24987594 3.8533212 8.74022951 8.34669521 12.5 13.625 C13.73938022 15.33608464 14.9789694 17.04701794 16.21875 18.7578125 C16.84652344 19.62954102 17.47429687 20.50126953 18.12109375 21.39941406 C21.05111083 25.45483791 24.02665441 29.47630143 27 33.5 C28.1642509 35.08059041 29.32831283 36.66132003 30.4921875 38.2421875 C32.84691492 41.43835856 35.20678337 44.6306454 37.5703125 47.8203125 C43.63340086 56.01080029 49.61959496 64.24248727 55.46362305 72.59082031 C59.20351404 77.91675131 63.05488985 83.15249196 66.9375 88.375 C72.1925504 95.45312812 77.23404337 102.6488005 82.17773438 109.94702148 C85.84219878 115.34433337 89.60031789 120.66173715 93.4375 125.9375 C102.77943786 138.78602268 111.84334487 151.82786533 120.82348633 164.93115234 C126.81700577 173.66621445 132.91581508 182.32798656 139 191 C155.14871767 214.01736362 155.14871767 214.01736362 161.51171875 223.375 C163.12132085 225.73900527 164.76777445 228.06732417 166.45703125 230.375 C172.48333397 238.81815617 172.48333397 238.81815617 172.75 243.4375 C171.89373673 247.50475054 171.17779955 249.31109269 168 252 C164.77928154 253.13672416 162.51326024 253.6201329 159.26098633 252.28735352 C150.88382281 247.52781839 142.90569345 242.12707886 134.875 236.8125 C133.35696063 235.81156105 131.8387326 234.81090816 130.3203125 233.81054688 C120.85871456 227.57257491 111.42458141 221.29371075 102 215 C100.00011595 213.66649275 98.00013605 212.33312924 96 211 C71.0625 194.375 46.125 177.75 21.1875 161.125 C20.24132812 160.49464844 19.29515625 159.86429688 18.3203125 159.21484375 C15.68856019 157.45931015 13.05867592 155.70107152 10.4296875 153.94140625 C9.62635986 153.40435059 8.82303223 152.86729492 7.99536133 152.31396484 C6.40602628 151.25143096 4.81729486 150.18799345 3.22924805 149.12353516 C-0.46395057 146.65600037 -4.16015829 144.23672688 -8 142 C-13.32586796 145.33119878 -18.61979838 148.68508472 -23.75 152.3125 C-29.58053949 156.43455583 -35.5276204 160.374291 -41.47607422 164.32275391 C-46.22472997 167.47841893 -50.96718588 170.64339709 -55.71069336 173.80679321 C-58.66239372 175.77514722 -61.61441433 177.7430208 -64.56640625 179.7109375 C-65.68896638 180.45930759 -66.81152503 181.20767991 -67.93408203 181.95605469 C-87.95605469 195.30403646 -107.97802734 208.65201823 -128 222 C-128.99249756 222.66177246 -129.98499512 223.32354492 -131.00756836 224.00537109 C-132.98193896 225.32140338 -134.95670282 226.6368459 -136.93188477 227.95166016 C-141.67585751 231.1106406 -146.4150947 234.27622151 -151.14120483 237.46185303 C-153.48120042 239.03844781 -155.82359296 240.61145999 -158.16625977 242.18408203 C-159.36069248 242.98717546 -160.55402974 243.79190025 -161.74633789 244.59814453 C-163.50377233 245.78595407 -165.2651313 246.96773202 -167.02734375 248.1484375 C-168.05593506 248.84114746 -169.08452637 249.53385742 -170.14428711 250.24755859 C-173.84494142 252.51850813 -176.62407556 254.02866509 -181 253.9375 C-184.87304693 252.72717283 -186.51792085 251.19124462 -189 248 C-190.20684951 244.45487956 -190.33139944 242.78278833 -188.8671875 239.32421875 C-186.56792948 235.23076986 -183.90837675 231.52485178 -181.125 227.75 C-179.95040366 226.14071052 -178.77592783 224.53133307 -177.6015625 222.921875 C-177.0024707 222.10396484 -176.40337891 221.28605469 -175.78613281 220.44335938 C-173.00681216 216.64135814 -170.25412056 212.82027235 -167.5 209 C-166.41939559 207.50381614 -165.338666 206.00772268 -164.2578125 204.51171875 C-162.06360376 201.47373582 -159.87107461 198.43455006 -157.6796875 195.39453125 C-156.57813863 193.86717767 -155.47657625 192.33983383 -154.375 190.8125 C-153.84229492 190.07314209 -153.30958984 189.33378418 -152.76074219 188.57202148 C-150.119645 184.9120423 -147.46312819 181.26507733 -144.7734375 177.640625 C-144.26377441 176.95250732 -143.75411133 176.26438965 -143.22900391 175.55541992 C-142.26861833 174.26132493 -141.30493436 172.96966888 -140.33740234 171.6809082 C-138.44122871 169.12505555 -137.01400858 167.04202573 -136 164 C-134.89978516 162.90558594 -134.89978516 162.90558594 -133.77734375 161.7890625 C-130.56511618 158.56328123 -128.12694058 155.11909192 -125.5625 151.375 C-121.15414273 145.03345551 -116.66103849 138.76755666 -112.0625 132.5625 C-107.50194985 126.40290969 -102.97633979 120.22107637 -98.5 114 C-92.32789962 105.428055 -86.0696977 96.92142529 -79.79248047 88.42626953 C-76.73389053 84.28621685 -73.67916072 80.14332078 -70.625 76 C-70.03356201 75.19788086 -69.44212402 74.39576172 -68.83276367 73.56933594 C-65.83073782 69.49518837 -62.8413795 65.4127229 -59.875 61.3125 C-56.18609963 56.22354788 -52.40952758 51.20248562 -48.63012695 46.18066406 C-45.23768167 41.66731535 -41.88788393 37.12540572 -38.5625 32.5625 C-34.48072558 26.97144784 -30.3262566 21.43932987 -26.125 15.9375 C-25.32171265 14.88381226 -25.32171265 14.88381226 -24.50219727 13.80883789 C-23.01185816 11.86417556 -21.51064025 9.92892407 -20 8 C-19.32831787 7.13882568 -19.32831787 7.13882568 -18.64306641 6.26025391 C-13.41984348 -0.25039711 -8.14636601 -3.77146575 0 0 Z " fill="#D2D1D2" transform="translate(521,515)"/>
<path d="M0 0 C2.44433594 0.34790039 2.44433594 0.34790039 4.51464844 2.41040039 C5.19269531 3.37977539 5.87074219 4.34915039 6.56933594 5.34790039 C6.95130127 5.88479492 7.3332666 6.42168945 7.72680664 6.97485352 C8.98434661 8.75377547 10.21548082 10.54906566 11.44433594 12.34790039 C12.28886586 13.56701228 13.13392506 14.78575767 13.97949219 16.00415039 C15.8081147 18.64871429 17.6249901 21.30098075 19.43652344 23.95727539 C22.67385516 28.69619629 25.9620428 33.3988141 29.25683594 38.09790039 C29.84408447 38.93554932 30.43133301 39.77319824 31.03637695 40.63623047 C32.23649967 42.34768285 33.43677731 44.05902661 34.63720703 45.77026367 C36.43544424 48.33521752 38.2313385 50.90179405 40.02636719 53.46899414 C45.54319529 61.35840701 51.0700463 69.24010846 56.63183594 77.09790039 C60.8615075 83.07629846 65.03275074 89.09176453 69.17089844 95.13378906 C73.37322675 101.26243254 77.63441241 107.34900413 81.90087891 113.43310547 C87.11007593 120.86364388 92.29247968 128.31259867 97.47119141 135.7644043 C101.88596631 142.11445229 106.31647221 148.45322607 110.75683594 154.78540039 C115.29397912 161.25690596 119.79553576 167.75101386 124.26196289 174.27148438 C127.95474219 179.65473897 131.69544133 185.00361306 135.44433594 190.34790039 C141.49651932 198.97942201 147.49358776 207.64621167 153.44433594 216.34790039 C154.07645996 217.27086914 154.70858398 218.19383789 155.35986328 219.14477539 C157.43122122 222.16977105 159.50056536 225.19613478 161.56933594 228.22290039 C162.23376709 229.19340332 162.89819824 230.16390625 163.58276367 231.16381836 C164.19966064 232.0676123 164.81655762 232.97140625 165.45214844 233.90258789 C166.00531738 234.71195801 166.55848633 235.52132812 167.12841797 236.35522461 C169.46801048 239.89803612 169.77931228 242.076952 169.44433594 246.34790039 C168.05113083 249.75351286 167.21003964 251.02099456 163.80126953 252.47631836 C160.01947422 253.45820994 156.76404145 253.57445803 152.85839844 253.54321289 C152.15661469 253.540383 151.45483093 253.5375531 150.73178101 253.53463745 C148.51078565 253.52352551 146.29020748 253.49843873 144.06933594 253.47290039 C142.55501888 253.46285893 141.04069545 253.45373513 139.52636719 253.44555664 C135.83222335 253.42361593 132.13832043 253.38914914 128.44433594 253.34790039 C128.11433594 254.00790039 127.78433594 254.66790039 127.44433594 255.34790039 C127.44433594 254.68790039 127.44433594 254.02790039 127.44433594 253.34790039 C126.65364212 253.35456223 125.8629483 253.36122406 125.04829407 253.36808777 C117.58878501 253.42825347 110.12939396 253.47390239 102.66970539 253.50333691 C98.83479251 253.51897834 95.00008049 253.54018844 91.1652832 253.57421875 C87.46295897 253.60686706 83.76082769 253.62476486 80.05837059 253.63253212 C78.64739127 253.63806586 77.23642224 253.64887203 75.82552528 253.66509056 C73.84610967 253.68693488 71.86649901 253.68812639 69.88696289 253.68847656 C68.19818779 253.69846931 68.19818779 253.69846931 66.47529602 253.70866394 C61.78989089 253.15097814 59.27661579 251.28547735 56.19042969 247.80883789 C55.42859375 246.79047852 54.66675781 245.77211914 53.88183594 244.72290039 C53.2444751 243.87453613 53.2444751 243.87453613 52.59423828 243.0090332 C47.58403493 236.28886903 42.78211702 229.41626863 37.98095703 222.54614258 C35.4553831 218.93313531 32.92058587 215.3266588 30.38183594 211.72290039 C29.88441895 211.01681641 29.38700195 210.31073242 28.87451172 209.58325195 C25.1727797 204.34406321 21.3932727 199.16633938 17.58422852 194.00488281 C13.66944568 188.68701718 9.86138289 183.29784644 6.06542969 177.89477539 C2.39900156 172.68260379 -1.3160439 167.50776337 -5.05566406 162.34790039 C-11.79925951 153.03822899 -18.42401482 143.64737505 -25.03515625 134.2434082 C-26.52025536 132.1317676 -28.00632465 130.02081597 -29.49316406 127.91040039 C-29.98494141 127.21237305 -30.47671875 126.5143457 -30.98339844 125.79516602 C-34.11425887 121.3614768 -37.27901091 116.95391342 -40.4675293 112.56152344 C-42.63613876 109.57114539 -44.79198643 106.57166496 -46.94775391 103.57202148 C-48.02984288 102.0752358 -49.11885794 100.58343558 -50.21435547 99.09643555 C-51.80212883 96.94116187 -53.36795616 94.77138587 -54.93066406 92.59790039 C-55.65491577 91.63291626 -55.65491577 91.63291626 -56.39379883 90.6484375 C-58.37423022 87.85620267 -59.52991843 85.85807036 -59.70410156 82.40649414 C-58.08574579 78.09638335 -55.58695124 74.80078474 -52.80566406 71.16040039 C-51.61209076 69.55523868 -50.42075126 67.94841395 -49.23144531 66.34008789 C-48.31419678 65.10403809 -48.31419678 65.10403809 -47.37841797 63.84301758 C-44.48896379 59.88772402 -41.73979911 55.84059151 -38.99316406 51.78540039 C-33.44168541 43.61764066 -27.78166597 35.53363235 -22.06591797 27.48022461 C-20.48865471 25.25329002 -18.9178609 23.02190965 -17.34863281 20.78930664 C-16.81826416 20.03536621 -16.28789551 19.28142578 -15.74145508 18.50463867 C-14.73980357 17.08042278 -13.73892173 15.65566508 -12.73901367 14.23022461 C-11.81989534 12.92501542 -10.89464205 11.62410184 -9.96289062 10.32788086 C-8.96712285 8.92682662 -7.99748964 7.50702598 -7.046875 6.07495117 C-6.28938965 4.97449463 -6.28938965 4.97449463 -5.51660156 3.85180664 C-5.06849121 3.18093018 -4.62038086 2.51005371 -4.15869141 1.81884766 C-2.55566406 0.34790039 -2.55566406 0.34790039 0 0 Z " fill="#D1D1D2" transform="translate(688.5556640625,503.652099609375)"/>
<path d="M0 0 C3.16034713 0.29865823 4.62602525 0.60787879 6.8515625 2.94140625 C7.72941406 4.23884766 7.72941406 4.23884766 8.625 5.5625 C9.65560547 7.05910156 9.65560547 7.05910156 10.70703125 8.5859375 C11.25931396 9.40916504 11.25931396 9.40916504 11.82275391 10.24902344 C13.05777433 12.08593063 14.31343529 13.90725149 15.57421875 15.7265625 C17.92330325 19.12043837 20.2563197 22.52502532 22.58544922 25.93261719 C24.39535958 28.57782273 26.21231115 31.21814235 28.02978516 33.8581543 C29.8664568 36.52649486 31.70069161 39.19650566 33.53466797 41.86669922 C34.54120951 43.33207075 35.54806233 44.7972285 36.55517578 46.26220703 C39.27707712 50.22291713 41.99115455 54.18855704 44.69140625 58.1640625 C46.93182786 61.45821059 49.21490054 64.71699588 51.52734375 67.9609375 C52.64346196 69.55712891 53.75935566 71.15347734 54.875 72.75 C55.40536865 73.47622559 55.9357373 74.20245117 56.48217773 74.95068359 C58.82333501 78.34099838 59.96463973 80.31201221 60.1796875 84.49609375 C58.62152909 89.12413379 56.2074051 92.46549658 53.25 96.3125 C52.05693853 97.91249716 50.86424023 99.51276517 49.671875 101.11328125 C48.75438477 102.33072021 48.75438477 102.33072021 47.81835938 103.57275391 C44.99304885 107.34413377 42.24874469 111.17266586 39.5 115 C38.41843345 116.49903331 37.33640068 117.99773035 36.25390625 119.49609375 C35.71781738 120.23843262 35.18172852 120.98077148 34.62939453 121.74560547 C32.99280851 124.00994999 31.35408835 126.27273581 29.71484375 128.53515625 C24.43419578 135.82747964 19.1804866 143.1361012 14 150.5 C8.28208009 158.62784334 2.47175905 166.68666044 -3.35888672 174.73388672 C-6.07648169 178.48644794 -8.78797486 182.2434125 -11.5 186 C-14.78388543 190.54779486 -18.06845048 195.09509379 -21.35546875 199.640625 C-26.25345906 206.41541534 -31.14650929 213.19323902 -36 220 C-36.79942055 221.11853148 -37.59890082 222.23702028 -38.3984375 223.35546875 C-39.79037968 225.30299066 -41.17910112 227.25265452 -42.56347656 229.20556641 C-60.02891677 253.83460613 -60.02891677 253.83460613 -66 255 C-67.34685481 255.09035566 -68.69734104 255.13461472 -70.04721069 255.14044189 C-70.84338303 255.14615204 -71.63955536 255.15186218 -72.45985413 255.15774536 C-73.32436691 255.15886322 -74.1888797 255.15998108 -75.07958984 255.16113281 C-75.9971254 255.16609772 -76.91466095 255.17106262 -77.86000061 255.17617798 C-80.89365388 255.19077648 -83.92725488 255.19759733 -86.9609375 255.203125 C-89.07077028 255.20887781 -91.18060304 255.21463552 -93.29043579 255.22039795 C-97.71380863 255.23090097 -102.13716332 255.2367484 -106.56054688 255.24023438 C-112.22549461 255.2457214 -117.89020228 255.26975695 -123.55507469 255.29820633 C-127.91312357 255.31683802 -132.27111464 255.32203857 -136.62919998 255.32357025 C-138.71756937 255.32659547 -140.80593777 255.33461956 -142.89426804 255.34775543 C-145.81690463 255.36482882 -148.73895473 255.36293256 -151.66162109 255.35644531 C-152.52208542 255.3656601 -153.38254974 255.37487488 -154.26908875 255.3843689 C-160.16090512 255.34344605 -164.42141068 254.32904842 -168.9375 250.25 C-170.47545134 246.99316187 -170.01772772 244.34229663 -169 241 C-167.31621499 237.85644177 -165.27478418 235.01185948 -163.1875 232.125 C-162.60218506 231.29347412 -162.01687012 230.46194824 -161.41381836 229.60522461 C-159.62046111 227.0619575 -157.81072837 224.5309158 -156 222 C-154.98536472 220.56233596 -153.97225194 219.12359575 -152.9609375 217.68359375 C-151.00983388 214.9072123 -149.05263976 212.13531516 -147.08984375 209.3671875 C-143.75017119 204.65323915 -140.43611827 199.92153273 -137.125 195.1875 C-136.24726929 193.93271851 -136.24726929 193.93271851 -135.35180664 192.65258789 C-134.16185502 190.95123593 -132.97199534 189.24981967 -131.78222656 187.54833984 C-128.85623267 183.3645694 -125.9280169 179.18235476 -123 175 C-121.83332241 173.33334098 -120.66665575 171.66667431 -119.5 170 C-117.16666667 166.66666667 -114.83333333 163.33333333 -112.5 160 C-111.92233887 159.1747583 -111.34467773 158.3495166 -110.74951172 157.49926758 C-109.58451636 155.83501172 -108.4194774 154.17078639 -107.25439453 152.5065918 C-104.31179589 148.30329077 -101.36999096 144.09943819 -98.4296875 139.89453125 C-92.96823538 132.08561286 -87.50032722 124.28159847 -82 116.5 C-71.9196499 102.23652222 -61.9306172 87.90952474 -51.96191406 73.56787109 C-47.08651569 66.55581116 -42.19430912 59.55573563 -37.29125977 52.56298828 C-34.19231055 48.14068029 -31.10345544 43.71166782 -28.02734375 39.2734375 C-9.5091768 12.55990246 -9.5091768 12.55990246 0 0 Z " fill="#D1D1D1" transform="translate(336,504)"/>
<path d="M0 0 C4.69634837 4.304986 8.52021722 8.57298016 9.4375 15.125 C8.91890415 18.53291561 8.2119231 20.34569228 6 23 C1.38418482 24.97065377 -2.59944956 25.2352044 -7.5859375 25.1953125 C-8.28772125 25.1924826 -8.989505 25.18965271 -9.71255493 25.18673706 C-11.93355028 25.17562512 -14.15412845 25.15053834 -16.375 25.125 C-17.88931705 25.11495854 -19.40364049 25.10583473 -20.91796875 25.09765625 C-24.61211258 25.07571554 -28.30601551 25.04124875 -32 25 C-32.33 25.66 -32.66 26.32 -33 27 C-33 26.34 -33 25.68 -33 25 C-33.79069382 25.00666183 -34.58138763 25.01332367 -35.39604187 25.02018738 C-42.85555093 25.08035308 -50.31494197 25.126002 -57.77463055 25.15543652 C-61.60954343 25.17107795 -65.44425545 25.19228805 -69.27905273 25.22631836 C-72.98137696 25.25896667 -76.68350825 25.27686447 -80.38596535 25.28463173 C-81.79694467 25.29016547 -83.20791369 25.30097164 -84.61881065 25.31719017 C-86.59822627 25.33903449 -88.57783693 25.340226 -90.55737305 25.34057617 C-91.68322311 25.34723801 -92.80907318 25.35389984 -93.96903992 25.36076355 C-97.38830929 24.95378104 -99.25017545 24.03827831 -102 22 C-103.3125 19.8125 -103.3125 19.8125 -104 18 C-103.37884308 18.64965225 -102.75768616 19.2993045 -102.1177063 19.96864319 C-97.75083609 22.81389887 -94.22326145 22.55473319 -89.11669922 22.50170898 C-88.12592377 22.50711197 -87.13514832 22.51251495 -86.11434937 22.51808167 C-82.84415693 22.53057466 -79.57484371 22.51407593 -76.3046875 22.49609375 C-74.03215488 22.4962487 -71.759622 22.497737 -69.48709106 22.50050354 C-64.7274404 22.50188771 -59.96809101 22.48932411 -55.20849609 22.46655273 C-49.1004363 22.43813605 -42.99287592 22.44091408 -36.88477898 22.45364285 C-32.193977 22.46058852 -27.50329099 22.45282397 -22.81250381 22.44038582 C-20.55978973 22.43586279 -18.30706323 22.43554192 -16.05434799 22.43945122 C-12.91080823 22.44235331 -9.76796375 22.4259052 -6.62451172 22.40405273 C-5.68937744 22.40855438 -4.75424316 22.41305603 -3.79077148 22.41769409 C-2.50805862 22.40283714 -2.50805862 22.40283714 -1.19943237 22.38768005 C-0.45650877 22.38525016 0.28641483 22.38282026 1.05185127 22.38031673 C3.5894473 21.88492836 4.46352183 21.0551691 6 19 C6.86119215 13.45009503 6.16703645 10.76699195 3 6.125 C2.443125 5.38507812 1.88625 4.64515625 1.3125 3.8828125 C0 2 0 2 0 0 Z " fill="#C1C1C0" transform="translate(849,732)"/>
<path d="M0 0 C4.1412109 1.38040363 5.50203294 4.25561226 7.8125 7.75 C8.27954346 8.44287109 8.74658691 9.13574219 9.2277832 9.84960938 C10.82701759 12.22749038 12.41359861 14.61354027 14 17 C15.27824373 18.91172726 16.55690425 20.82317588 17.8359375 22.734375 C21.23340103 27.81666205 24.62010738 32.90601367 28 38 C25.43717951 43.35488409 22.67293972 48.22104471 19.25 53.0625 C18.78464844 53.73023438 18.31929687 54.39796875 17.83984375 55.0859375 C16.8036161 56.57200041 15.765086 58.05645971 14.72460938 59.53955078 C12.16230856 63.19510962 9.61572442 66.86155783 7.06738281 70.52685547 C5.69241753 72.50422051 4.31676961 74.48111106 2.94042969 76.45751953 C-2.73996157 84.6154122 -8.38195318 92.79907997 -14 101 C-14.33 100.01 -14.66 99.02 -15 98 C-14.08227539 96.2043457 -14.08227539 96.2043457 -12.59765625 94.17578125 C-12.04489014 93.4062915 -11.49212402 92.63680176 -10.92260742 91.84399414 C-10.30877197 91.00860107 -9.69493652 90.17320801 -9.0625 89.3125 C-7.76566066 87.5070505 -6.47150136 85.69967368 -5.1796875 83.890625 C-4.15439941 82.45686523 -4.15439941 82.45686523 -3.10839844 80.99414062 C0.46630518 75.91769723 3.88713934 70.74038968 7.3125 65.5625 C12.27687295 58.06724696 17.28552739 50.61940076 22.49609375 43.29296875 C24.14452802 40.99286226 24.14452802 40.99286226 25 38 C23.99123632 35.95429359 23.99123632 35.95429359 22.38671875 33.859375 C21.80237061 33.04267334 21.21802246 32.22597168 20.6159668 31.38452148 C19.97957275 30.51512939 19.34317871 29.6457373 18.6875 28.75 C17.39456068 26.94492131 16.10290512 25.13892244 14.8125 23.33203125 C14.16796875 22.43436035 13.5234375 21.53668945 12.859375 20.61181641 C10.23777633 16.92932395 7.6973115 13.19678884 5.1875 9.4375 C4.77395264 8.82551758 4.36040527 8.21353516 3.93432617 7.58300781 C2.25334639 5.06171793 0.96390517 2.89171552 0 0 Z " fill="#3F316F" transform="translate(639,434)"/>
<path d="M0 0 C0.66 0 1.32 0 2 0 C0.74218914 3.41198411 -0.68942141 6.23878805 -2.80078125 9.1953125 C-3.35894531 9.98357422 -3.91710937 10.77183594 -4.4921875 11.58398438 C-5.09289062 12.42251953 -5.69359375 13.26105469 -6.3125 14.125 C-7.59075005 15.92904569 -8.86807277 17.73374874 -10.14453125 19.5390625 C-10.79115723 20.45204102 -11.4377832 21.36501953 -12.10400391 22.30566406 C-14.94444942 26.34212513 -17.72422682 30.41891423 -20.5 34.5 C-25.06758934 41.2079234 -29.70307318 47.86437485 -34.375 54.5 C-38.54088609 60.41943874 -42.58429808 66.37159922 -46.40234375 72.5234375 C-49.39428369 77.16131016 -52.70467272 81.57484623 -56 86 C-57 83 -57 83 -56.09472656 81.16918945 C-55.37494629 80.15151489 -55.37494629 80.15151489 -54.640625 79.11328125 C-53.84108398 77.96569336 -53.84108398 77.96569336 -53.02539062 76.79492188 C-52.14657227 75.56612305 -52.14657227 75.56612305 -51.25 74.3125 C-50.03645635 72.57942847 -48.82291471 70.84635554 -47.609375 69.11328125 C-46.69188477 67.81511475 -46.69188477 67.81511475 -45.75585938 66.49072266 C-43.30576084 63.01520747 -40.90214935 59.50873232 -38.5 56 C-37.60439291 54.69776104 -36.70855607 53.39568006 -35.8125 52.09375 C-32.70080477 47.56764784 -29.60028769 43.03392043 -26.5 38.5 C-21.53841872 31.24496802 -16.57335864 23.99242273 -11.58203125 16.7578125 C-9.83389423 14.221662 -8.10442222 11.67403982 -6.38671875 9.1171875 C-5.76651855 8.20138916 -5.76651855 8.20138916 -5.13378906 7.26708984 C-4.01065431 5.60805937 -2.89377769 3.94479713 -1.77734375 2.28125 C-1.19082031 1.5284375 -0.60429687 0.775625 0 0 Z " fill="#3A2C68" transform="translate(494,274)"/>
<path d="M0 0 C3.33707506 1.11235835 3.64715187 1.55000034 5.4609375 4.3671875 C6.15860229 5.43453125 6.15860229 5.43453125 6.87036133 6.5234375 C7.36689209 7.29945313 7.86342285 8.07546875 8.375 8.875 C9.44806387 10.51898356 10.5223237 12.16218699 11.59765625 13.8046875 C12.15469238 14.65901367 12.71172852 15.51333984 13.28564453 16.39355469 C16.07389328 20.63270929 18.94076572 24.81712962 21.8125 29 C22.36583008 29.80719482 22.91916016 30.61438965 23.48925781 31.44604492 C26.70388443 36.12959081 29.94196381 40.79559881 33.2109375 45.44140625 C36.04905725 49.5002893 38.85177208 53.58347998 41.65039062 57.66967773 C44.12053342 61.27508389 46.60490292 64.86911227 49.1171875 68.4453125 C49.62088867 69.16638184 50.12458984 69.88745117 50.64355469 70.63037109 C51.61077812 72.01425934 52.58258967 73.39495535 53.55957031 74.77197266 C55.6886526 77.82889487 57.2516363 80.35259659 58 84 C53.98136844 80.23343314 50.92730863 76.25925948 47.875 71.6875 C46.90378978 70.25380873 45.93243146 68.82021777 44.9609375 67.38671875 C44.46948242 66.65759277 43.97802734 65.9284668 43.47167969 65.17724609 C41.16882286 61.77033216 38.8336962 58.38582727 36.5 55 C35.58835459 53.67460783 34.67689698 52.34908645 33.765625 51.0234375 C33.31251953 50.3644043 32.85941406 49.70537109 32.39257812 49.02636719 C30.96410663 46.94777087 29.53663896 44.86848812 28.109375 42.7890625 C22.39900217 34.4662235 22.39900217 34.4662235 16.625 26.1875 C13.08696417 21.13688865 9.56768982 16.07344955 6.0625 11 C5.46969238 10.14946045 4.87688477 9.2989209 4.26611328 8.42260742 C3.71552246 7.62314697 3.16493164 6.82368652 2.59765625 6 C2.09758057 5.278125 1.59750488 4.55625 1.08227539 3.8125 C0 2 0 2 0 0 Z " fill="#372966" transform="translate(535,282)"/>
<path d="M0 0 C2.90170408 2.75604338 5.21012912 5.5566096 7.44140625 8.875 C8.09818359 9.84655029 8.75496094 10.81810059 9.43164062 11.8190918 C10.13482422 12.8687915 10.83800781 13.91849121 11.5625 15 C12.69259551 16.67552698 13.82269994 18.351048 14.95321655 20.02629089 C16.14861227 21.79875012 17.34212235 23.57247021 18.53564453 25.34619141 C21.02039274 29.03490125 23.52225836 32.71180104 26.02734375 36.38671875 C26.86583874 37.6178149 27.70429924 38.84893455 28.54272461 40.08007812 C29.75129571 41.85470541 30.96016231 43.62912444 32.17044067 45.40258789 C33.30288774 47.06276525 34.4327082 48.72473328 35.5625 50.38671875 C36.29210937 51.45583496 37.02171875 52.52495117 37.7734375 53.62646484 C39.37552834 56.01251427 40.8805099 58.43980415 42.3515625 60.90869141 C42.7427124 61.55336868 43.1338623 62.19804596 43.53686523 62.86225891 C44.28487514 64.10214723 45.01717249 65.35169965 45.73071289 66.61174011 C47.61493888 69.71150491 48.63508853 70.88664344 52.15234375 71.97924805 C55.01709857 72.29164447 55.01709857 72.29164447 56.875 70.5625 C57.24625 70.046875 57.6175 69.53125 58 69 C57.42655063 71.86724686 57.1385485 72.8614515 55 75 C52.25 75.125 52.25 75.125 49 74 C47.2172847 72.07853563 45.76274045 70.08137094 44.296875 67.91015625 C43.00730349 65.88208567 43.00730349 65.88208567 41 64 C39.98066967 62.457343 38.99042212 60.89539522 38.015625 59.32421875 C33.42711371 52.03930463 28.58999462 44.93139848 23.75 37.8125 C22.81266028 36.43137202 21.87540489 35.05018679 20.93823242 33.66894531 C15.27542805 25.32716968 9.59413011 16.99834736 3.86328125 8.703125 C0 3.09853249 0 3.09853249 0 0 Z " fill="#3F316E" transform="translate(554,482)"/>
<path d="M0 0 C2.46926597 2.30464824 4.08018779 4.26106791 6 7 C6.6192334 7.8667334 6.6192334 7.8667334 7.25097656 8.75097656 C8.66391919 10.7390817 10.0543882 12.74104032 11.4375 14.75 C11.89938721 15.41209473 12.36127441 16.07418945 12.8371582 16.75634766 C13.97366254 18.45191964 14.99649341 20.22247898 16 22 C15.505 23.485 15.505 23.485 15 25 C14.5560791 24.3387915 14.1121582 23.67758301 13.65478516 22.99633789 C11.6495287 20.01521795 9.63736885 17.0388229 7.625 14.0625 C6.92632813 13.02158203 6.22765625 11.98066406 5.5078125 10.90820312 C4.8375 9.91884766 4.1671875 8.92949219 3.4765625 7.91015625 C2.85861816 6.99371338 2.24067383 6.07727051 1.60400391 5.13305664 C0.17386564 2.90106444 0.17386564 2.90106444 -2 2 C-4.87306228 1.49904977 -4.87306228 1.49904977 -8 2 C-12.79249147 5.8094163 -16.32058906 11.1329982 -20 16 C-20.33 15.34 -20.66 14.68 -21 14 C-19.9218837 12.41310971 -18.83726048 10.83063918 -17.75 9.25 C-17.14671875 8.36828125 -16.5434375 7.4865625 -15.921875 6.578125 C-11.26893023 0.33636982 -7.92717721 -2.14974297 0 0 Z " fill="#3B2C67" transform="translate(518,256)"/>
<path d="M0 0 C2.82494948 2.69159926 5.10873631 5.4055208 7.28515625 8.640625 C7.89351318 9.53958496 8.50187012 10.43854492 9.12866211 11.36474609 C10.08591187 12.79294678 10.08591187 12.79294678 11.0625 14.25 C12.39815668 16.22675227 13.73409675 18.20331309 15.0703125 20.1796875 C15.73063477 21.15905273 16.39095703 22.13841797 17.07128906 23.14746094 C19.83760183 27.23880251 22.6346943 31.30860741 25.4375 35.375 C26.13661499 36.39062012 26.13661499 36.39062012 26.84985352 37.42675781 C27.8994588 38.9514773 28.94965092 40.4757928 30 42 C29.34 42.66 28.68 43.32 28 44 C27.22782487 42.87242303 26.45570129 41.74481075 25.68359375 40.6171875 C25.1733667 39.87210938 24.66313965 39.12703125 24.13745117 38.359375 C22.99212505 36.6855507 21.8477761 35.01105739 20.7043457 33.3359375 C17.42014962 28.52613088 14.12039356 23.72804905 10.796875 18.9453125 C10.11181885 17.95418457 9.4267627 16.96305664 8.72094727 15.94189453 C7.37797921 13.99895239 6.02960272 12.05973617 4.67553711 10.12451172 C3.75913452 8.79444092 3.75913452 8.79444092 2.82421875 7.4375 C2.27854248 6.65246094 1.73286621 5.86742187 1.1706543 5.05859375 C0 3 0 3 0 0 Z " fill="#3F326F" transform="translate(361,476)"/>
<path d="M0 0 C4.0226073 1.51666572 5.59139198 3.89336286 7.93359375 7.41796875 C8.66513672 8.50787109 9.39667969 9.59777344 10.15039062 10.72070312 C10.91308048 11.87609087 11.67544802 13.03169144 12.4375 14.1875 C13.19510036 15.32414351 13.95355603 16.46021743 14.71289062 17.59570312 C16.16493679 19.76802549 17.61224495 21.94352431 19.05419922 24.12255859 C20.67166401 26.51445822 22.34969952 28.817088 24.09765625 31.11328125 C24.72542969 32.06589844 25.35320313 33.01851563 26 34 C25.67 34.99 25.34 35.98 25 37 C22.35964577 33.76045232 19.88684548 30.47250784 17.5390625 27.015625 C16.90226563 26.07976562 16.26546875 25.14390625 15.609375 24.1796875 C14.95453125 23.21289062 14.2996875 22.24609375 13.625 21.25 C12.65433594 19.82300781 12.65433594 19.82300781 11.6640625 18.3671875 C9.77122153 15.581353 7.88463818 12.79138861 6 10 C5.1023291 8.67645508 5.1023291 8.67645508 4.18652344 7.32617188 C3.3632959 6.10510742 3.3632959 6.10510742 2.5234375 4.859375 C2.03536621 4.13717773 1.54729492 3.41498047 1.04443359 2.67089844 C0 1 0 1 0 0 Z " fill="#3A2C69" transform="translate(593,367)"/>
<path d="M0 0 C0.66 0 1.32 0 2 0 C0.72298044 3.48889076 -0.75676975 6.3106635 -2.9375 9.3125 C-5.27878554 12.57251784 -7.58654964 15.84799607 -9.8359375 19.171875 C-10.32715088 19.89592529 -10.81836426 20.61997559 -11.32446289 21.3659668 C-12.30847364 22.81849258 -13.28948524 24.27305512 -14.26733398 25.72973633 C-14.72180908 26.3977124 -15.17628418 27.06568848 -15.64453125 27.75390625 C-16.05034424 28.35533447 -16.45615723 28.9567627 -16.87426758 29.57641602 C-18 31 -18 31 -20 32 C-19.35976136 28.29699812 -17.73346457 25.83094007 -15.625 22.75 C-14.9134375 21.7084375 -14.201875 20.666875 -13.46875 19.59375 C-13.076875 19.02527344 -12.685 18.45679688 -12.28125 17.87109375 C-10.86972126 15.80974538 -9.48124656 13.73384353 -8.09375 11.65625 C-7.10457288 10.18722639 -6.11499329 8.7184737 -5.125 7.25 C-4.64885254 6.53424805 -4.17270508 5.81849609 -3.68212891 5.08105469 C-2.50607408 3.35133906 -1.25905904 1.67026688 0 0 Z " fill="#3F306D" transform="translate(434,361)"/>
<path d="M0 0 C3.96752265 3.7067796 6.89250676 7.56269288 9.8125 12.125 C13.55562115 17.89018565 17.46851896 23.40625731 21.69921875 28.828125 C22.12847656 29.54484375 22.55773437 30.2615625 23 31 C22.67 31.99 22.34 32.98 22 34 C16.55127558 27.43850792 11.85967043 20.41184412 7.17675781 13.29736328 C6.68014648 12.54310059 6.18353516 11.78883789 5.671875 11.01171875 C5.2294043 10.33584717 4.78693359 9.65997559 4.33105469 8.96362305 C3.00042413 6.94160252 3.00042413 6.94160252 1.33300781 4.93676758 C0 3 0 3 0 0 Z " fill="#3B2D6A" transform="translate(529,446)"/>
<path d="M0 0 C4.64516235 4.37126692 8.00673881 9.56987773 11.56494141 14.81811523 C12.75249994 16.56617987 13.95197497 18.30563702 15.15234375 20.04492188 C15.90959043 21.15574845 16.66612622 22.26706004 17.421875 23.37890625 C18.10862305 24.3851001 18.79537109 25.39129395 19.50292969 26.42797852 C21 29 21 29 21 32 C18.27547957 29.39256031 16.0172937 26.7862497 13.90625 23.6640625 C13.07287109 22.43816406 13.07287109 22.43816406 12.22265625 21.1875 C11.65417969 20.341875 11.08570313 19.49625 10.5 18.625 C9.93152344 17.78710938 9.36304688 16.94921875 8.77734375 16.0859375 C7.67557989 14.46013283 6.57775949 12.83164705 5.484375 11.20019531 C4.57104003 9.84641657 3.64633497 8.50012857 2.703125 7.16699219 C0 3.31456316 0 3.31456316 0 0 Z " fill="#3B2D69" transform="translate(554,482)"/>
<path d="M0 0 C0.66 0.33 1.32 0.66 2 1 C-0.6515359 4.86083452 -3.30456457 8.72061694 -5.9609375 12.578125 C-7.87111988 15.3532728 -9.7725694 18.13396 -11.6640625 20.921875 C-12.07019775 21.51718018 -12.47633301 22.11248535 -12.89477539 22.72583008 C-14.0067398 24.35576579 -15.11480229 25.98836142 -16.22265625 27.62109375 C-18 30 -18 30 -20 31 C-19.36165358 27.38410007 -17.83036935 24.97985355 -15.76171875 21.97265625 C-15.10623047 21.01552734 -14.45074219 20.05839844 -13.77539062 19.07226562 C-13.08638672 18.07904297 -12.39738281 17.08582031 -11.6875 16.0625 C-11.01009766 15.07314453 -10.33269531 14.08378906 -9.63476562 13.06445312 C-6.55329246 8.58532253 -3.43405908 4.21820313 0 0 Z " fill="#3B2E69" transform="translate(401,410)"/>
<path d="M0 0 C0.66 0.33 1.32 0.66 2 1 C1.443125 1.79921875 0.88625 2.5984375 0.3125 3.421875 C-0.45859501 4.53106813 -1.22940682 5.64045817 -2 6.75 C-2.60642334 7.62277588 -2.60642334 7.62277588 -3.22509766 8.51318359 C-6.65718003 13.46914804 -9.9827393 18.48790847 -13.2734375 23.5390625 C-14.72709532 25.61101822 -16.13964618 27.29943117 -18 29 C-18.8125 27.3125 -18.8125 27.3125 -19 25 C-17.33483146 23.33183655 -15.66781808 21.66551446 -14 20 C-12.19572501 17.5745531 -10.5676791 15.04479272 -8.9375 12.5 C-6.13196355 8.16065573 -3.31355858 3.97933132 0 0 Z " fill="#3F316C" transform="translate(379,442)"/>
<path d="M0 0 C1.79296875 0.1953125 1.79296875 0.1953125 4 1 C5.67578125 3.1171875 5.67578125 3.1171875 7.3125 5.875 C7.90804687 6.85855469 8.50359375 7.84210938 9.1171875 8.85546875 C9.73851562 9.89316406 10.35984375 10.93085938 11 12 C12.30640927 14.06636331 13.61861447 16.12907744 14.9375 18.1875 C15.95833333 19.79166667 16.97916667 21.39583333 18 23 C14.7717288 21.63200065 13.16714532 20.26419619 11.203125 17.375 C10.71972656 16.66859375 10.23632812 15.9621875 9.73828125 15.234375 C9.00158203 14.12835938 9.00158203 14.12835938 8.25 13 C7.49009766 11.89398438 7.49009766 11.89398438 6.71484375 10.765625 C3 5.27847035 3 5.27847035 3 3 C1.68 3 0.36 3 -1 3 C-0.67 2.01 -0.34 1.02 0 0 Z " fill="#3A2B6A" transform="translate(511,422)"/>
<path d="M0 0 C0.33 0.99 0.66 1.98 1 3 C-0.15234375 5.09375 -0.15234375 5.09375 -1.9375 7.5 C-2.57945312 8.37527344 -3.22140625 9.25054687 -3.8828125 10.15234375 C-4.58148438 11.09207031 -5.28015625 12.03179687 -6 13 C-6.71929687 14.01191406 -7.43859375 15.02382813 -8.1796875 16.06640625 C-13.73190789 23.86595395 -13.73190789 23.86595395 -16 25 C-14.66235755 21.3114366 -13.01032497 18.33273064 -10.7421875 15.13671875 C-10.11699219 14.25048828 -9.49179687 13.36425781 -8.84765625 12.45117188 C-7.87119141 11.0831543 -7.87119141 11.0831543 -6.875 9.6875 C-6.21628906 8.75615234 -5.55757813 7.82480469 -4.87890625 6.86523438 C-3.25711178 4.57356827 -1.63070139 2.2853324 0 0 Z " fill="#3A2C69" transform="translate(472,478)"/>
<path d="M0 0 C0.63769531 1.77709961 0.63769531 1.77709961 1 4 C0.15136719 5.78344727 0.15136719 5.78344727 -1.203125 7.56640625 C-1.68910156 8.21673828 -2.17507813 8.86707031 -2.67578125 9.53710938 C-3.19527344 10.20548828 -3.71476562 10.87386719 -4.25 11.5625 C-4.75402344 12.23474609 -5.25804687 12.90699219 -5.77734375 13.59960938 C-8.04094186 16.59100477 -10.29955551 19.38834676 -13 22 C-12.52817812 16.93513656 -10.01844167 13.81349171 -7.0625 9.875 C-6.15734818 8.64337899 -5.25239317 7.41161332 -4.34765625 6.1796875 C-3.18556641 4.60574219 -3.18556641 4.60574219 -2 3 C-1.34 2.01 -0.68 1.02 0 0 Z " fill="#3E2F6C" transform="translate(450,338)"/>
<path d="M0 0 C4.28879579 3.78913026 7.14703458 8.49904816 10.25 13.25 C10.80429687 14.09046875 11.35859375 14.9309375 11.9296875 15.796875 C13.29069425 17.86185075 14.64729288 19.92958185 16 22 C15.01 22 14.02 22 13 22 C11.38671875 20.12890625 11.38671875 20.12890625 9.6875 17.5625 C9.08164062 16.655 8.47578125 15.7475 7.8515625 14.8125 C7.24054688 13.884375 6.62953125 12.95625 6 12 C5.40960938 11.154375 4.81921875 10.30875 4.2109375 9.4375 C3.66695313 8.65375 3.12296875 7.87 2.5625 7.0625 C2.06878906 6.35222656 1.57507813 5.64195312 1.06640625 4.91015625 C0 3 0 3 0 0 Z " fill="#392C67" transform="translate(399,532)"/>
<path d="M0 0 C4.81884058 4.56521739 4.81884058 4.56521739 5.9375 7.25 C6.94164728 9.33554267 6.94164728 9.33554267 9.9375 9.9375 C12.98853581 10.31865276 12.98853581 10.31865276 14.875 8.5625 C15.24625 8.046875 15.6175 7.53125 16 7 C15.42655063 9.86724686 15.1385485 10.8614515 13 13 C10.25 13.125 10.25 13.125 7 12 C5.2172847 10.07853563 3.76274045 8.08137094 2.296875 5.91015625 C1.00730349 3.88208567 1.00730349 3.88208567 -1 2 C-0.67 1.34 -0.34 0.68 0 0 Z " fill="#4B3D76" transform="translate(596,544)"/>
<path d="M0 0 C0.33 0 0.66 0 1 0 C1.5 2.5625 1.5 2.5625 1 6 C-1.41995038 8.65876127 -4.13443598 10.83803429 -7 13 C-7 9.18008284 -5.76738773 7.88692091 -3.5625 4.8125 C-2.92441406 3.91144531 -2.28632812 3.01039063 -1.62890625 2.08203125 C-1.09136719 1.39496094 -0.55382812 0.70789063 0 0 Z " fill="#C3C1C5" transform="translate(678,515)"/>
<path d="M0 0 C1 3 1 3 0.22729492 4.7175293 C-0.18415771 5.33023682 -0.59561035 5.94294434 -1.01953125 6.57421875 C-1.46490234 7.24130859 -1.91027344 7.90839844 -2.36914062 8.59570312 C-2.84544922 9.28599609 -3.32175781 9.97628906 -3.8125 10.6875 C-4.27720703 11.38939453 -4.74191406 12.09128906 -5.22070312 12.81445312 C-6.42020971 14.58531722 -7.70431848 16.29824059 -9 18 C-9.66 18 -10.32 18 -11 18 C-9.48103632 13.56829827 -7.07360191 9.96975924 -4.375 6.1875 C-3.95476562 5.59001953 -3.53453125 4.99253906 -3.1015625 4.37695312 C-2.07220272 2.91479435 -1.0367177 1.45695101 0 0 Z " fill="#392B69" transform="translate(508,426)"/>
<path d="M0 0 C0 5.54436173 -3.01370359 9.89628735 -6.625 13.9375 C-9 16 -9 16 -11 17 C-9.52869627 12.6426774 -7.16919385 9.28065866 -4.375 5.6875 C-3.95476562 5.13771484 -3.53453125 4.58792969 -3.1015625 4.02148438 C-2.07279961 2.67707832 -1.0370991 1.33798587 0 0 Z " fill="#C0C0C0" transform="translate(275,591)"/>
<path d="M0 0 C5.12779375 2.98127544 7.75269769 6.03353764 11 11 C10.67 11.66 10.34 12.32 10 13 C6.40523299 9.50794062 3.07973809 5.95966325 0 2 C0 1.34 0 0.68 0 0 Z " fill="#C7C6C8" transform="translate(550,555)"/>
<path d="M0 0 C0.66 0.33 1.32 0.66 2 1 C-2.95 7.93 -2.95 7.93 -8 15 C-8.33 14.01 -8.66 13.02 -9 12 C-7.59166619 9.8037049 -6.18346343 7.83930111 -4.5625 5.8125 C-4.12873047 5.25369141 -3.69496094 4.69488281 -3.24804688 4.11914062 C-2.17453547 2.73891168 -1.0884306 1.36849461 0 0 Z " fill="#3A2C65" transform="translate(412,394)"/>
<path d="M0 0 C0.33 0.99 0.66 1.98 1 3 C-0.40333195 5.35255857 -1.82161123 7.49093839 -3.4375 9.6875 C-3.87126953 10.29400391 -4.30503906 10.90050781 -4.75195312 11.52539062 C-5.82544245 13.02355704 -6.91155165 14.5126661 -8 16 C-8.33 15.01 -8.66 14.02 -9 13 C-7.59666805 10.64744143 -6.17838877 8.50906161 -4.5625 6.3125 C-4.12873047 5.70599609 -3.69496094 5.09949219 -3.24804688 4.47460938 C-2.17455755 2.97644296 -1.08844835 1.4873339 0 0 Z " fill="#3B2E6F" transform="translate(453,505)"/>
<path d="M0 0 C0.33 0.99 0.66 1.98 1 3 C-0.58203125 5.91796875 -0.58203125 5.91796875 -2.8125 9.1875 C-3.54082031 10.27417969 -4.26914062 11.36085938 -5.01953125 12.48046875 C-5.67308594 13.31191406 -6.32664062 14.14335937 -7 15 C-7.66 15 -8.32 15 -9 15 C-7.61219205 11.10993227 -5.7847773 8.03441292 -3.375 4.6875 C-2.74335938 3.80449219 -2.11171875 2.92148437 -1.4609375 2.01171875 C-0.97882813 1.34785156 -0.49671875 0.68398438 0 0 Z " fill="#3A2B6B" transform="translate(495,445)"/>
<path d="M0 0 C3.59584747 1.44930671 5.18832656 3.22752078 7.3125 6.4375 C7.84488281 7.21996094 8.37726562 8.00242187 8.92578125 8.80859375 C10 11 10 11 9 14 C7.49717827 11.85609361 5.99764203 9.71001973 4.5 7.5625 C4.07074219 6.95083984 3.64148438 6.33917969 3.19921875 5.70898438 C0 1.11328125 0 1.11328125 0 0 Z " fill="#382A66" transform="translate(619,405)"/>
<path d="M0 0 C3.39417765 3.12621626 5.6062718 5.56541027 7 10 C3.73539027 8.19587357 2.11070205 7.16605307 0 4 C0 2.68 0 1.36 0 0 Z " fill="#BEBCC0" transform="translate(362,537)"/>
<path d="M0 0 C3.67033927 3.27708863 5.69281189 6.71522208 8 11 C3.78926767 9.49616703 2.16762883 6.79335044 0 3 C0 2.01 0 1.02 0 0 Z " fill="#342762" transform="translate(361,476)"/>
<path d="M0 0 C3.67033927 3.27708863 5.69281189 6.71522208 8 11 C3.78926767 9.49616703 2.16762883 6.79335044 0 3 C0 2.01 0 1.02 0 0 Z " fill="#342662" transform="translate(521,434)"/>
<path d="M0 0 C2.33524782 2.25740623 4.18705073 4.2805761 6 7 C5.625 9.1875 5.625 9.1875 5 11 C4.15841464 9.73461631 3.32700252 8.46246221 2.5 7.1875 C1.80390625 6.12595703 1.80390625 6.12595703 1.09375 5.04296875 C0 3 0 3 0 0 Z " fill="#403371" transform="translate(391,520)"/>
<path d="M0 0 C0.99 0 1.98 0 3 0 C5.25 2.75 5.25 2.75 7 6 C6.67 7.32 6.34 8.64 6 10 C4.02 6.7 2.04 3.4 0 0 Z " fill="#493A77" transform="translate(367,487)"/>
<path d="M0 0 C0.66 0.33 1.32 0.66 2 1 C0.02 3.97 -1.96 6.94 -4 10 C-5 6 -5 6 -4.00390625 4.296875 C-2.66927083 2.86458333 -1.33463542 1.43229167 0 0 Z " fill="#382C66" transform="translate(379,442)"/>
<path d="M0 0 C2.64752004 2.57784846 4.94432065 4.91648098 7 8 C6.67 8.99 6.34 9.98 6 11 C4.9944239 9.54550599 3.99569565 8.08627557 3 6.625 C2.443125 5.81289063 1.88625 5.00078125 1.3125 4.1640625 C0 2 0 2 0 0 Z " fill="#352660" transform="translate(521,261)"/>
<path d="M0 0 C2.95929119 2.75520215 5.03681826 5.46627288 7 9 C6.01 9 5.02 9 4 9 C0 3.85714286 0 3.85714286 0 0 Z " fill="#382B68" transform="translate(374,495)"/>
<path d="M0 0 C3.39417765 3.12621626 5.6062718 5.56541027 7 10 C5.85073734 9.04578192 4.70569459 8.08647955 3.5625 7.125 C2.92441406 6.59132813 2.28632812 6.05765625 1.62890625 5.5078125 C0 4 0 4 -1 2 C-0.67 1.34 -0.34 0.68 0 0 Z " fill="#BAB8BA" transform="translate(700,518)"/>
<path d="M0 0 C0.33 0.99 0.66 1.98 1 3 C-0.375 4.5 -0.375 4.5 -2 6 C-2.66 6 -3.32 6 -4 6 C-3.6875 4.125 -3.6875 4.125 -3 2 C-2.01 1.34 -1.02 0.68 0 0 Z " fill="#CCCACC" transform="translate(449,595)"/>
<path d="M0 0 C0.66 0.33 1.32 0.66 2 1 C-0.475 4.465 -0.475 4.465 -3 8 C-3.33 7.01 -3.66 6.02 -4 5 C-2.0625 2.3125 -2.0625 2.3125 0 0 Z " fill="#392A66" transform="translate(418,385)"/>
<path d="M0 0 C2.12038635 2.61514317 4.13091744 5.19637616 6 8 C4.125 7.6875 4.125 7.6875 2 7 C0 4 0 4 0 0 Z " fill="#413374" transform="translate(563,321)"/>
<path d="M0 0 C0.99 0.495 0.99 0.495 2 1 C1.34 1.66 0.68 2.32 0 3 C0 2.01 0 1.02 0 0 Z " fill="#8170AD" transform="translate(392,528)"/>
<path d="M0 0 C3 1 3 1 3 1 Z " fill="#C7C7C5" transform="translate(840,758)"/>
<path d="M0 0 C3 1 3 1 3 1 Z " fill="#CFCECD" transform="translate(784,758)"/>
<path d="M0 0 C0.66 0.66 1.32 1.32 2 2 C1.34 2 0.68 2 0 2 C0 1.34 0 0.68 0 0 Z " fill="#D7D9D9" transform="translate(713,709)"/>
<path d="M0 0 C0.66 0 1.32 0 2 0 C1.67 0.66 1.34 1.32 1 2 C0.67 1.34 0.34 0.68 0 0 Z " fill="#D8D6D7" transform="translate(705,699)"/>
<path d="M0 0 C0.99 0.495 0.99 0.495 2 1 C1.01 1.495 1.01 1.495 0 2 C0 1.34 0 0.68 0 0 Z " fill="#806EAC" transform="translate(384,518)"/>
<path d="M0 0 C2 1 2 1 2 1 Z " fill="#C9C9C8" transform="translate(833,758)"/>
<path d="M0 0 C2 1 2 1 2 1 Z " fill="#CDCECC" transform="translate(819,758)"/>
<path d="M0 0 C2 1 2 1 2 1 Z " fill="#CFCECD" transform="translate(795,758)"/>
<path d="M0 0 C2 1 2 1 2 1 Z " fill="#CFCFCE" transform="translate(776,758)"/>
<path d="M0 0 C2 1 2 1 2 1 Z " fill="#CDCDCD" transform="translate(760,758)"/>
<path d="M0 0 C2 1 2 1 2 1 Z " fill="#CCCDCC" transform="translate(756,758)"/>
<path d="M0 0 C2 1 2 1 2 1 Z " fill="#D2D0D1" transform="translate(517,663)"/>
<path d="" fill="#8C7BB2" transform="translate(0,0)"/>
<path d="" fill="#7E6AAA" transform="translate(0,0)"/>
<path d="" fill="#7769A2" transform="translate(0,0)"/>
<path d="" fill="#65519E" transform="translate(0,0)"/>
<path d="" fill="#614F96" transform="translate(0,0)"/>
<path d="M0 0 C2 1 2 1 2 1 Z " fill="#5F4C9A" transform="translate(513,429)"/>
<path d="" fill="#5F4E98" transform="translate(0,0)"/>
<path d="M0 0 C2 1 2 1 2 1 Z " fill="#5F4C97" transform="translate(408,394)"/>
<path d="" fill="#535453" transform="translate(0,0)"/>
<path d="" fill="#C9C7C7" transform="translate(0,0)"/>
<path d="" fill="#C9C9C8" transform="translate(0,0)"/>
<path d="" fill="#C4C3C4" transform="translate(0,0)"/>
<path d="" fill="#C9C7C8" transform="translate(0,0)"/>
<path d="" fill="#CECDCD" transform="translate(0,0)"/>
<path d="" fill="#CCCDCA" transform="translate(0,0)"/>
<path d="" fill="#CCCDCD" transform="translate(0,0)"/>
<path d="" fill="#D1CFCE" transform="translate(0,0)"/>
<path d="" fill="#D0CDCD" transform="translate(0,0)"/>
<path d="" fill="#D0CFCE" transform="translate(0,0)"/>
<path d="" fill="#CECECD" transform="translate(0,0)"/>
<path d="" fill="#CCCECD" transform="translate(0,0)"/>
<path d="" fill="#CBCACA" transform="translate(0,0)"/>
<path d="" fill="#C9C8C9" transform="translate(0,0)"/>
<path d="" fill="#CECDCC" transform="translate(0,0)"/>
<path d="" fill="#CDCCCB" transform="translate(0,0)"/>
<path d="" fill="#CCCCCE" transform="translate(0,0)"/>
<path d="" fill="#D1D0D0" transform="translate(0,0)"/>
<path d="" fill="#D4D1D1" transform="translate(0,0)"/>
<path d="" fill="#D5D3D3" transform="translate(0,0)"/>
<path d="" fill="#D6D5D5" transform="translate(0,0)"/>
<path d="" fill="#CFCFD0" transform="translate(0,0)"/>
<path d="" fill="#D7D8D7" transform="translate(0,0)"/>
<path d="" fill="#CCCBCD" transform="translate(0,0)"/>
<path d="" fill="#D5D5D4" transform="translate(0,0)"/>
<path d="" fill="#D6D5D6" transform="translate(0,0)"/>
<path d="" fill="#CDCACB" transform="translate(0,0)"/>
<path d="" fill="#D6D5D5" transform="translate(0,0)"/>
<path d="" fill="#CECCCD" transform="translate(0,0)"/>
<path d="" fill="#D8D5D5" transform="translate(0,0)"/>
<path d="" fill="#D6D6D4" transform="translate(0,0)"/>
<path d="" fill="#CCCDCC" transform="translate(0,0)"/>
<path d="" fill="#D4D5D5" transform="translate(0,0)"/>
<path d="" fill="#CECDCC" transform="translate(0,0)"/>
<path d="" fill="#D6D7D5" transform="translate(0,0)"/>
<path d="" fill="#DAD8D7" transform="translate(0,0)"/>
<path d="" fill="#CECBCC" transform="translate(0,0)"/>
<path d="" fill="#D9D9D8" transform="translate(0,0)"/>
<path d="" fill="#CFCECD" transform="translate(0,0)"/>
<path d="" fill="#D5D7D4" transform="translate(0,0)"/>
<path d="" fill="#CCCACB" transform="translate(0,0)"/>
<path d="" fill="#D6D7D6" transform="translate(0,0)"/>
<path d="" fill="#D8D8D6" transform="translate(0,0)"/>
<path d="" fill="#CFCACB" transform="translate(0,0)"/>
<path d="" fill="#D1D1D0" transform="translate(0,0)"/>
<path d="" fill="#CDCCCD" transform="translate(0,0)"/>
<path d="" fill="#D0D0CF" transform="translate(0,0)"/>
<path d="" fill="#D6D3D5" transform="translate(0,0)"/>
<path d="" fill="#D7D8D6" transform="translate(0,0)"/>
<path d="" fill="#CDCBCA" transform="translate(0,0)"/>
<path d="" fill="#D2D4D3" transform="translate(0,0)"/>
<path d="" fill="#D8D7D6" transform="translate(0,0)"/>
<path d="" fill="#D3D0D1" transform="translate(0,0)"/>
<path d="" fill="#D5D7D7" transform="translate(0,0)"/>
<path d="" fill="#CDCCCD" transform="translate(0,0)"/>
<path d="" fill="#D7D7D7" transform="translate(0,0)"/>
<path d="" fill="#D0CFD0" transform="translate(0,0)"/>
<path d="" fill="#D8D7D6" transform="translate(0,0)"/>
<path d="" fill="#D0D0CF" transform="translate(0,0)"/>
<path d="" fill="#CDCDCF" transform="translate(0,0)"/>
<path d="" fill="#D6D6D9" transform="translate(0,0)"/>
<path d="" fill="#D8D7D6" transform="translate(0,0)"/>
<path d="" fill="#D0CFD0" transform="translate(0,0)"/>
<path d="" fill="#D1CDD1" transform="translate(0,0)"/>
<path d="" fill="#CECECD" transform="translate(0,0)"/>
<path d="" fill="#D1D0D0" transform="translate(0,0)"/>
<path d="" fill="#D0CED0" transform="translate(0,0)"/>
<path d="" fill="#D0CFCF" transform="translate(0,0)"/>
<path d="" fill="#DFDBDA" transform="translate(0,0)"/>
<path d="" fill="#D0CFD0" transform="translate(0,0)"/>
<path d="" fill="#D5D6D4" transform="translate(0,0)"/>
<path d="" fill="#D3D3D2" transform="translate(0,0)"/>
<path d="" fill="#CFD0CF" transform="translate(0,0)"/>
<path d="" fill="#D7D7D8" transform="translate(0,0)"/>
<path d="" fill="#D7D4D8" transform="translate(0,0)"/>
<path d="" fill="#D0CECF" transform="translate(0,0)"/>
<path d="" fill="#D3D1D3" transform="translate(0,0)"/>
<path d="" fill="#D1D1D4" transform="translate(0,0)"/>
<path d="" fill="#D6D7D6" transform="translate(0,0)"/>
<path d="" fill="#D7D7D4" transform="translate(0,0)"/>
<path d="" fill="#D3D4D7" transform="translate(0,0)"/>
<path d="" fill="#D5D1D3" transform="translate(0,0)"/>
<path d="" fill="#D6D5D6" transform="translate(0,0)"/>
<path d="" fill="#D4D3D4" transform="translate(0,0)"/>
<path d="" fill="#D6D6D6" transform="translate(0,0)"/>
<path d="" fill="#D1D0D0" transform="translate(0,0)"/>
<path d="" fill="#D8D5D7" transform="translate(0,0)"/>
<path d="" fill="#D6D5D8" transform="translate(0,0)"/>
<path d="" fill="#D3D3D4" transform="translate(0,0)"/>
<path d="" fill="#D2D4D3" transform="translate(0,0)"/>
<path d="" fill="#D3D0D3" transform="translate(0,0)"/>
<path d="" fill="#CFCCCD" transform="translate(0,0)"/>
<path d="" fill="#D8D9DA" transform="translate(0,0)"/>
<path d="" fill="#D9D9D9" transform="translate(0,0)"/>
<path d="" fill="#CFCECD" transform="translate(0,0)"/>
<path d="" fill="#D5D4D6" transform="translate(0,0)"/>
<path d="" fill="#D7D5D7" transform="translate(0,0)"/>
<path d="" fill="#D6D3D5" transform="translate(0,0)"/>
<path d="" fill="#D6D3D6" transform="translate(0,0)"/>
<path d="" fill="#D7D6D6" transform="translate(0,0)"/>
<path d="" fill="#D7D6D7" transform="translate(0,0)"/>
<path d="" fill="#D4D4D4" transform="translate(0,0)"/>
<path d="" fill="#D7D4D7" transform="translate(0,0)"/>
<path d="" fill="#DAD7D6" transform="translate(0,0)"/>
<path d="" fill="#D6D5D5" transform="translate(0,0)"/>
<path d="" fill="#D6D5D7" transform="translate(0,0)"/>
<path d="" fill="#D8D5D6" transform="translate(0,0)"/>
<path d="" fill="#D0CFCE" transform="translate(0,0)"/>
<path d="" fill="#D7D7D7" transform="translate(0,0)"/>
<path d="" fill="#D7D4D6" transform="translate(0,0)"/>
<path d="" fill="#D5D5D5" transform="translate(0,0)"/>
<path d="" fill="#D7D3D7" transform="translate(0,0)"/>
<path d="" fill="#D5D4D4" transform="translate(0,0)"/>
<path d="" fill="#D5D3D4" transform="translate(0,0)"/>
<path d="" fill="#D3D3D4" transform="translate(0,0)"/>
<path d="" fill="#D1CECE" transform="translate(0,0)"/>
<path d="" fill="#D2D3D1" transform="translate(0,0)"/>
<path d="" fill="#D5D4D4" transform="translate(0,0)"/>
<path d="" fill="#D5D5D6" transform="translate(0,0)"/>
<path d="" fill="#D1D0D2" transform="translate(0,0)"/>
<path d="" fill="#CDCBCB" transform="translate(0,0)"/>
<path d="" fill="#CFCFD1" transform="translate(0,0)"/>
<path d="" fill="#CFCDD0" transform="translate(0,0)"/>
<path d="" fill="#D1CECF" transform="translate(0,0)"/>
<path d="" fill="#CAC6CB" transform="translate(0,0)"/>
<path d="" fill="#CECACD" transform="translate(0,0)"/>
<path d="" fill="#C9C8CB" transform="translate(0,0)"/>
<path d="" fill="#998CB9" transform="translate(0,0)"/>
<path d="" fill="#C7C6C7" transform="translate(0,0)"/>
<path d="" fill="#8E82B0" transform="translate(0,0)"/>
<path d="" fill="#C2C0C6" transform="translate(0,0)"/>
<path d="" fill="#8377AB" transform="translate(0,0)"/>
<path d="" fill="#C0BAC4" transform="translate(0,0)"/>
<path d="" fill="#C5C5C8" transform="translate(0,0)"/>
<path d="" fill="#C8C7CA" transform="translate(0,0)"/>
<path d="" fill="#816FA9" transform="translate(0,0)"/>
<path d="" fill="#8070AC" transform="translate(0,0)"/>
<path d="" fill="#C9C7C9" transform="translate(0,0)"/>
<path d="" fill="#8878AF" transform="translate(0,0)"/>
<path d="" fill="#7C6BA9" transform="translate(0,0)"/>
<path d="" fill="#7867A8" transform="translate(0,0)"/>
<path d="" fill="#7C69A6" transform="translate(0,0)"/>
<path d="" fill="#8070AB" transform="translate(0,0)"/>
<path d="" fill="#71609F" transform="translate(0,0)"/>
<path d="" fill="#7C6AAD" transform="translate(0,0)"/>
<path d="" fill="#766AA6" transform="translate(0,0)"/>
<path d="" fill="#7B6BA9" transform="translate(0,0)"/>
<path d="" fill="#7767A4" transform="translate(0,0)"/>
<path d="" fill="#7F6EA6" transform="translate(0,0)"/>
<path d="" fill="#7D6CA9" transform="translate(0,0)"/>
<path d="" fill="#7361A4" transform="translate(0,0)"/>
<path d="" fill="#7E6AA6" transform="translate(0,0)"/>
<path d="" fill="#BDBDC0" transform="translate(0,0)"/>
<path d="" fill="#B9B2BF" transform="translate(0,0)"/>
<path d="" fill="#836FAD" transform="translate(0,0)"/>
<path d="" fill="#7E6DA8" transform="translate(0,0)"/>
<path d="" fill="#7C6BA2" transform="translate(0,0)"/>
<path d="" fill="#6D5A9A" transform="translate(0,0)"/>
<path d="" fill="#7867AB" transform="translate(0,0)"/>
<path d="" fill="#725FA6" transform="translate(0,0)"/>
<path d="" fill="#7A67A3" transform="translate(0,0)"/>
<path d="" fill="#7161A4" transform="translate(0,0)"/>
<path d="" fill="#715FA2" transform="translate(0,0)"/>
<path d="" fill="#7A6BA5" transform="translate(0,0)"/>
<path d="" fill="#7A6BA4" transform="translate(0,0)"/>
<path d="" fill="#6E5BA3" transform="translate(0,0)"/>
<path d="" fill="#6C58A1" transform="translate(0,0)"/>
<path d="" fill="#68549D" transform="translate(0,0)"/>
<path d="" fill="#6B599F" transform="translate(0,0)"/>
<path d="" fill="#69579C" transform="translate(0,0)"/>
<path d="" fill="#6F5C9E" transform="translate(0,0)"/>
<path d="" fill="#69569C" transform="translate(0,0)"/>
<path d="" fill="#665497" transform="translate(0,0)"/>
<path d="" fill="#66519B" transform="translate(0,0)"/>
<path d="" fill="#665495" transform="translate(0,0)"/>
<path d="" fill="#65519D" transform="translate(0,0)"/>
<path d="" fill="#63519A" transform="translate(0,0)"/>
<path d="" fill="#645799" transform="translate(0,0)"/>
<path d="" fill="#68559D" transform="translate(0,0)"/>
<path d="" fill="#65539C" transform="translate(0,0)"/>
<path d="" fill="#69569E" transform="translate(0,0)"/>
<path d="" fill="#64519A" transform="translate(0,0)"/>
<path d="" fill="#614E95" transform="translate(0,0)"/>
<path d="" fill="#5E4F98" transform="translate(0,0)"/>
<path d="" fill="#604E97" transform="translate(0,0)"/>
<path d="" fill="#5F4C99" transform="translate(0,0)"/>
<path d="" fill="#5E4D93" transform="translate(0,0)"/>
<path d="" fill="#5F4D8E" transform="translate(0,0)"/>
<path d="" fill="#60509A" transform="translate(0,0)"/>
<path d="" fill="#5F4D97" transform="translate(0,0)"/>
<path d="" fill="#5E4A96" transform="translate(0,0)"/>
<path d="" fill="#614E97" transform="translate(0,0)"/>
<path d="" fill="#5F4E97" transform="translate(0,0)"/>
<path d="" fill="#5E4D97" transform="translate(0,0)"/>
<path d="" fill="#5E4D97" transform="translate(0,0)"/>
<path d="" fill="#5F4B98" transform="translate(0,0)"/>
<path d="" fill="#5D4896" transform="translate(0,0)"/>
<path d="" fill="#5D4995" transform="translate(0,0)"/>
<path d="" fill="#5D4B96" transform="translate(0,0)"/>
<path d="" fill="#5F4992" transform="translate(0,0)"/>
<path d="" fill="#4C4951" transform="translate(0,0)"/>
<path d="" fill="#5A4894" transform="translate(0,0)"/>
<path d="" fill="#5C4C97" transform="translate(0,0)"/>
<path d="" fill="#5B488E" transform="translate(0,0)"/>
<path d="" fill="#5A478E" transform="translate(0,0)"/>
<path d="" fill="#5A488F" transform="translate(0,0)"/>
<path d="" fill="#5F508E" transform="translate(0,0)"/>
<path d="" fill="#5F4C97" transform="translate(0,0)"/>
<path d="" fill="#5D4C95" transform="translate(0,0)"/>
<path d="" fill="#5A478C" transform="translate(0,0)"/>
<path d="" fill="#464648" transform="translate(0,0)"/>
</svg>
